<svg aria-hidden="true" style="width:0;height:0;position:absolute;overflow:hidden" xmlns="http://www.w3.org/2000/svg"><defs><symbol id="icon-open-mobile-menu" viewBox="0 0 32 32"><path stroke="#fff" style="stroke:var(--color1,#fff)" stroke-linecap="round" stroke-width="2" d="M6 10h20M6 16h20M6 22h20"/></symbol><symbol id="icon-close-mobile-menu" viewBox="0 0 32 32"><path style="fill:var(--color2,#fcfcfc)" d="M23.884 6.706 16 14.59 8.116 6.706a.996.996 0 0 0-1.672.736c0 .26.099.497.262.674l-.001-.001 7.88 7.884-7.882 7.882a.998.998 0 0 0 1.41 1.412l7.886-7.882 7.884 7.884a.996.996 0 0 0 1.672-.736.992.992 0 0 0-.262-.674l.001.001-7.884-7.884 7.884-7.886a.998.998 0 0 0-1.41-1.412v.002z"/></symbol><symbol id="icon-mouse" viewBox="0 0 19 24" fill="none"><path d="m6.047 2.012 10.934 10.205c1.871 1.746.837 4.883-1.706 5.174l-4.118.47a5 5 0 0 0-2.777 1.251l-2.373 2.136C4.077 22.986 1 21.616 1 19.018V4.206C1 1.582 4.13.222 6.047 2.012Z" stroke="#131313" stroke-width="2"/></symbol><symbol id="about__icon" viewBox="0 0 12 12" fill="none"><path d="m4 2 4.948 4L4 10" stroke="currentColor" stroke-width="2" stroke-linecap="round" stroke-linejoin="round"/></symbol></defs><svg id="buy-icon" fill="none" xmlns="http://www.w3.org/2000/svg"><path d="m4 2 4.95 4L4 10" stroke="#131313" stroke-width="2" stroke-linecap="round" stroke-linejoin="round"/><svg aria-hidden="true" style="width:0;height:0;position:absolute;overflow:hidden" xmlns="http://www.w3.org/2000/svg"><defs><symbol id="icon-hero__button-foc" viewBox="0 0 69 32"><path d="M68.08 17.413c.361-.362.585-.861.585-1.413s-.224-1.052-.585-1.413L55.353 1.858a2.001 2.001 0 0 0-2.83 2.83l11.316 11.313-11.315 11.313a2.001 2.001 0 0 0 2.83 2.83l12.728-12.728zM0 18h66.667v-4H0v4z"/></symbol><symbol id="icon-hero__button-hov" viewBox="0 0 102 32"><path d="M101.414 17.414c.362-.362.586-.862.586-1.414s-.224-1.052-.586-1.414L88.686 1.858a2 2 0 1 0-2.829 2.827l.001.001L97.172 16 85.858 27.314a2 2 0 0 0 2.829 2.827l-.001.001 12.728-12.728zM0 18h100v-4H0v4z"/></symbol><symbol id="icon-hero__button-simple" viewBox="0 0 82 32"><path d="M81.414 17.414c.362-.362.586-.862.586-1.414s-.224-1.052-.586-1.414L68.686 1.858a2 2 0 1 0-2.829 2.827l.001.001L77.172 16 65.858 27.314a2 2 0 0 0 2.829 2.827l-.001.001 12.728-12.728zM0 18h80v-4H0v4z"/></symbol></defs></svg><svg aria-hidden="true" style="width:0;height:0;position:absolute;overflow:hidden" xmlns="http://www.w3.org/2000/svg" xmlns:xlink="http://www.w3.org/1999/xlink"><defs><symbol id="icon-close-modal" viewBox="0 0 32 32"><path d="m17.253 16 7.37-7.37a.89.89 0 0 0-1.256-1.252l.001-.001L16 14.747 8.63 7.369a.893.893 0 0 0-1.262 1.262l-.001-.001L14.745 16l-7.376 7.368a.89.89 0 1 0 1.252 1.256l.001-.001 7.376-7.37 7.37 7.37a.89.89 0 0 0 1.254-1.256l.001.001L17.253 16z"/></symbol></defs></svg><svg id="icon-scroll-up" xmlns="http://www.w3.org/2000/svg" viewBox="0 0 384 512"><path d="M214.6 41.4c-12.5-12.5-32.8-12.5-45.3 0l-160 160c-12.5 12.5-12.5 32.8 0 45.3s32.8 12.5 45.3 0L160 141.2V448c0 17.7 14.3 32 32 32s32-14.3 32-32V141.2l105.4 105.4c12.5 12.5 32.8 12.5 45.3 0s12.5-32.8 0-45.3l-160-160z"/></svg><svg id="icon-active-cursor" width="50" height="50" xmlns="http://www.w3.org/2000/svg" viewBox="0 0 448 512"><path d="M128 40c0-22.1 17.9-40 40-40s40 17.9 40 40v148.2c8.5-7.6 19.7-12.2 32-12.2 25.3 0 46 19.5 47.9 44.3 8.5-7.7 19.8-12.3 32.1-12.3 25.3 0 46 19.5 47.9 44.3 8.5-7.7 19.8-12.3 32.1-12.3 26.5 0 48 21.5 48 48v96c0 70.7-57.3 128-128 128h-85.3c-5 0-9.9-.3-14.7-1-55.3-5.6-106.2-34-140-79L8 336c-13.3-17.7-9.7-42.7 8-56s42.7-9.7 56 8l56 74.7V40zm112 264c0-8.8-7.2-16-16-16s-16 7.2-16 16v96c0 8.8 7.2 16 16 16s16-7.2 16-16v-96zm48-16c-8.8 0-16 7.2-16 16v96c0 8.8 7.2 16 16 16s16-7.2 16-16v-96c0-8.8-7.2-16-16-16zm80 16c0-8.8-7.2-16-16-16s-16 7.2-16 16v96c0 8.8 7.2 16 16 16s16-7.2 16-16v-96z"/></svg><svg aria-hidden="true" style="width:0;height:0;position:absolute;overflow:hidden" xmlns="http://www.w3.org/2000/svg" xmlns:xlink="http://www.w3.org/1999/xlink"><defs><symbol id="icon-open-mobile-menu" viewBox="0 0 32 32"><path stroke="#fff" style="stroke:var(--color1,#fff)" stroke-linecap="round" stroke-width="2" d="M6 10h20M6 16h20M6 22h20"/></symbol><symbol id="icon-close-mobile-menu" viewBox="0 0 32 32"><path style="fill:var(--color2,#fcfcfc)" d="M23.884 6.706 16 14.59 8.116 6.706a.996.996 0 0 0-1.672.736c0 .26.099.497.262.674l-.001-.001 7.88 7.884-7.882 7.882a.998.998 0 0 0 1.41 1.412l7.886-7.882 7.884 7.884a.996.996 0 0 0 1.672-.736.992.992 0 0 0-.262-.674l.001.001-7.884-7.884 7.884-7.886a.998.998 0 0 0-1.41-1.412v.002z"/></symbol><symbol id="icon-mouse" viewBox="0 0 19 24" fill="none"><path d="m6.047 2.012 10.934 10.205c1.871 1.746.837 4.883-1.706 5.174l-4.118.47a5 5 0 0 0-2.777 1.251l-2.373 2.136C4.077 22.986 1 21.616 1 19.018V4.206C1 1.582 4.13.222 6.047 2.012Z" stroke="#131313" stroke-width="2"/></symbol><symbol id="icon-arrow-def" viewBox="0 0 41 16" fill="none"><path d="M40.707 8.707a1 1 0 0 0 0-1.414L34.343.929a1 1 0 1 0-1.414 1.414L38.586 8l-5.657 5.657a1 1 0 0 0 1.414 1.414l6.364-6.364ZM0 9h40V7H0v2Z" fill="#131313"/></symbol><symbol id="icon-arrow-hov" viewBox="0 0 51 16" fill="none"><path d="M50.707 8.707a1 1 0 0 0 0-1.414L44.343.929a1 1 0 1 0-1.414 1.414L48.586 8l-5.657 5.657a1 1 0 0 0 1.414 1.414l6.364-6.364ZM0 9h50V7H0v2Z" fill="#131313"/></symbol><symbol id="icon-arrow-foc" viewBox="0 0 52 24" fill="none"><path d="M51.06 13.06a1.5 1.5 0 0 0 0-2.12l-9.545-9.547a1.5 1.5 0 1 0-2.122 2.122L47.88 12l-8.486 8.485a1.5 1.5 0 1 0 2.122 2.122l9.546-9.546ZM0 13.5h50v-3H0v3Z" fill="#131313"/></symbol></defs></svg></svg></svg>